<?xml version="1.0" encoding="utf-8"?>
<!-- Generator: Adobe Illustrator 21.1.0, SVG Export Plug-In . SVG Version: 6.00 Build 0)  -->
<svg version="1.1" id="Icons" xmlns="http://www.w3.org/2000/svg" xmlns:xlink="http://www.w3.org/1999/xlink" x="0px" y="0px"
	 viewBox="0 0 48 48" style="enable-background:new 0 0 48 48;" xml:space="preserve">
<style type="text/css">
	.st0{opacity:0.15;fill:#45413C;}
	.st1{fill:#BF8256;}
	.st2{fill:#915E3A;}
	.st3{fill:none;stroke:#45413C;stroke-linecap:round;stroke-linejoin:round;stroke-miterlimit:10;}
	.st4{fill:#DEA47A;}
	.st5{fill:#DAEDF7;stroke:#45413C;stroke-linecap:round;stroke-linejoin:round;stroke-miterlimit:10;}
	.st6{fill:#BF8256;stroke:#45413C;stroke-linecap:round;stroke-linejoin:round;stroke-miterlimit:10;}
	.st7{fill:#FF6242;}
	.st8{fill:#FF866E;}
	.st9{fill:#DEBB7E;}
	.st10{fill:#B89558;}
	.st11{fill:#656769;}
	.st12{fill:#525252;}
	.st13{fill:#E04122;}
	.st14{fill:#FFFFFF;}
	.st15{fill:#F0F0F0;}
	.st16{fill:#00B8F0;}
	.st17{fill:#4ACFFF;}
	.st18{fill:#C0DCEB;}
	.st19{fill:#8CA4B8;}
	.st20{fill:#FF6242;stroke:#45413C;stroke-linecap:round;stroke-linejoin:round;stroke-miterlimit:10;}
	.st21{fill:#87898C;}
	.st22{fill:#E0E0E0;}
	.st23{fill:#E8F4FA;stroke:#45413C;stroke-linecap:round;stroke-linejoin:round;stroke-miterlimit:10;}
	.st24{fill:#656769;stroke:#45413C;stroke-linecap:round;stroke-linejoin:round;stroke-miterlimit:10;}
	.st25{fill:#DAEDF7;}
	.st26{fill:#E8F4FA;}
	.st27{fill:#ADC4D9;stroke:#45413C;stroke-linecap:round;stroke-linejoin:round;stroke-miterlimit:10;}
	.st28{fill:#87898C;stroke:#45413C;stroke-linecap:round;stroke-linejoin:round;stroke-miterlimit:10;}
	.st29{fill:#BDBEC0;}
	.st30{fill:#FFFFFF;stroke:#45413C;stroke-linecap:round;stroke-linejoin:round;stroke-miterlimit:10;}
	.st31{fill:#ADC4D9;}
	.st32{fill:none;stroke:#00AED9;stroke-linecap:round;stroke-linejoin:round;stroke-miterlimit:10;}
	.st33{fill:#FFFACF;}
	.st34{fill:#FFE500;}
	.st35{fill:#915E3A;stroke:#45413C;stroke-linecap:round;stroke-linejoin:round;stroke-miterlimit:10;}
	.st36{fill:#FFAA54;}
	.st37{fill:#627B8C;stroke:#45413C;stroke-linecap:round;stroke-linejoin:round;stroke-miterlimit:10;}
	.st38{fill:#FFFEF2;}
	.st39{fill:#FFFCE5;stroke:#45413C;stroke-linecap:round;stroke-linejoin:round;stroke-miterlimit:10;}
	.st40{fill:#00F5BC;}
	.st41{fill:#FFFCE5;}
	.st42{fill:#FFFEF2;stroke:#45413C;stroke-linecap:round;stroke-linejoin:round;stroke-miterlimit:10;}
	.st43{fill:#8CFFE4;}
	.st44{fill:#FFF5E3;}
	.st45{fill:#F7E5C6;}
	.st46{fill:#F7E5C6;stroke:#45413C;stroke-linecap:round;stroke-linejoin:round;stroke-miterlimit:10;}
	.st47{fill:#F0D5A8;}
	.st48{fill:#FF87AF;stroke:#45413C;stroke-linecap:round;stroke-linejoin:round;stroke-miterlimit:10;}
	.st49{fill:#45413C;}
	.st50{fill:#BDBEC0;stroke:#45413C;stroke-linecap:round;stroke-linejoin:round;stroke-miterlimit:10;}
	.st51{fill:#E0E0E0;stroke:#45413C;stroke-linecap:round;stroke-linejoin:round;stroke-miterlimit:10;}
	.st52{fill:#DEBB7E;stroke:#45413C;stroke-linecap:round;stroke-linejoin:round;stroke-miterlimit:10;}
	.st53{fill:#F5EBFF;stroke:#45413C;stroke-linecap:round;stroke-linejoin:round;stroke-miterlimit:10;}
	.st54{fill:#BF8DF2;stroke:#45413C;stroke-linecap:round;stroke-linejoin:round;stroke-miterlimit:10;}
	.st55{fill:#E4FFD1;stroke:#45413C;stroke-linecap:round;stroke-linejoin:round;stroke-miterlimit:10;}
	.st56{fill:#F0FFE5;}
	.st57{fill:#C8FFA1;stroke:#45413C;stroke-linecap:round;stroke-linejoin:round;stroke-miterlimit:10;}
	.st58{fill:#6DD627;stroke:#45413C;stroke-linecap:round;stroke-linejoin:round;stroke-miterlimit:10;}
	.st59{fill:#E5FEFF;}
	.st60{fill:#FFAA54;stroke:#45413C;stroke-linecap:round;stroke-linejoin:round;stroke-miterlimit:10;}
	.st61{fill:#9CEB60;stroke:#45413C;stroke-linecap:round;stroke-linejoin:round;stroke-miterlimit:10;}
	.st62{fill:#FFF48C;}
	.st63{fill:#00B8F0;stroke:#45413C;stroke-linecap:round;stroke-linejoin:round;stroke-miterlimit:10;}
	.st64{fill:none;stroke:#4F4B45;stroke-linejoin:round;stroke-miterlimit:10;}
	.st65{fill:#FFFFFF;stroke:#4F4B45;stroke-linejoin:round;stroke-miterlimit:10;}
	.st66{fill:#FFF5E3;stroke:#4F4B45;stroke-linejoin:round;stroke-miterlimit:10;}
	.st67{fill:#F7E5C6;stroke:#4F4B45;stroke-linejoin:round;stroke-miterlimit:10;}
	.st68{fill:#6DD627;}
	.st69{fill:#EBCB00;}
	.st70{fill:#46B000;}
	.st71{fill:none;stroke:#E0E0E0;stroke-linecap:round;stroke-linejoin:round;stroke-miterlimit:10;}
	.st72{fill:#9CEB60;}
	.st73{fill:#FFCC99;}
	.st74{fill:#BF8DF2;}
	.st75{fill:#9F5AE5;}
	.st76{fill:#DABFF5;}
	.st77{fill:#F0F0F0;stroke:#45413C;stroke-linecap:round;stroke-linejoin:round;stroke-miterlimit:10;}
	.st78{fill:#E5F8FF;}
	.st79{fill:#B8ECFF;}
	.st80{fill:#D9FDFF;}
	.st81{fill:#C0DCEB;stroke:#45413C;stroke-linecap:round;stroke-linejoin:round;stroke-miterlimit:10;}
	.st82{fill:#46B000;stroke:#45413C;stroke-linecap:round;stroke-linejoin:round;stroke-miterlimit:10;}
	.st83{fill:none;stroke:#FFFFFF;stroke-miterlimit:10;}
	.st84{fill:none;stroke:#FFFFFF;stroke-linecap:round;stroke-linejoin:round;stroke-miterlimit:10;}
	.st85{fill:#FFE500;stroke:#45413C;stroke-linecap:round;stroke-linejoin:round;stroke-miterlimit:10;}
	.st86{fill:#80DDFF;stroke:#45413C;stroke-linecap:round;stroke-linejoin:round;stroke-miterlimit:10;}
	.st87{fill:#FFFFFF;stroke:#45413C;stroke-linejoin:round;stroke-miterlimit:10;}
	.st88{fill:#009FD9;stroke:#45413C;stroke-linecap:round;stroke-linejoin:round;stroke-miterlimit:10;}
	.st89{fill:#E04122;stroke:#45413C;stroke-linecap:round;stroke-linejoin:round;stroke-miterlimit:10;}
	.st90{fill:#009FD9;}
	.st91{fill:#FFFFFF;stroke:#45413C;stroke-miterlimit:10;}
	.st92{fill:#009FD9;stroke:#45413C;stroke-miterlimit:10;}
	.st93{fill:#FF8A14;stroke:#45413C;stroke-linecap:round;stroke-linejoin:round;stroke-miterlimit:10;}
	.st94{fill:none;stroke:#009FD9;stroke-linecap:round;stroke-linejoin:round;stroke-miterlimit:10;}
	.st95{fill:#525252;stroke:#45413C;stroke-linecap:round;stroke-linejoin:round;stroke-miterlimit:10;}
	.st96{fill:none;stroke:#46B000;stroke-linecap:round;stroke-linejoin:round;stroke-miterlimit:10;}
	.st97{fill:none;stroke:#E04122;stroke-linecap:round;stroke-linejoin:round;stroke-miterlimit:10;}
	.st98{fill:#6DD627;stroke:#45413C;stroke-miterlimit:10;}
	.st99{fill:none;stroke:#45413C;stroke-linejoin:round;stroke-miterlimit:10;}
	.st100{fill:#46B000;stroke:#45413C;stroke-miterlimit:10;}
	.st101{fill:#00DFEB;}
	.st102{fill:#00AD85;}
	.st103{fill:#E04122;stroke:#45413C;stroke-miterlimit:10;}
</style>
<g id="XMLID_17709_">
	<ellipse id="XMLID_17726_" class="st0" cx="24" cy="45.5" rx="17" ry="1.5"/>
	<g id="XMLID_17720_">
		<path id="XMLID_17725_" class="st82" d="M26.8,2.4h-6.2c-1.9,0-3.7,1-4.7,2.7L9.8,15.8l9.7,5.5l9.2-15.6
			C29.5,4.2,28.5,2.4,26.8,2.4z"/>
		<path id="XMLID_17724_" class="st68" d="M35.1,10.1l-2.9-5c-1-1.7-2.7-2.7-4.7-2.7h-6.9c-1.9,0-3.7,1-4.6,2.6L16,5.1
			c0.7-1.2,2.5-1.2,3.2,0l6.2,10.6l-1.7,1l10.6,3.2l2.5-10.8L35.1,10.1z"/>
		<g id="XMLID_17722_">
			<path id="XMLID_17723_" class="st72" d="M19.2,5.1l0.6,1.1c0.8-0.4,1.7-0.7,2.6-0.7h6.9c1.7,0,3.3,0.8,4.3,2.1l-1.4-2.5
				c-1-1.7-2.7-2.7-4.7-2.7h-6.9c-1.9,0-3.7,1-4.6,2.6L16,5.1C16.7,3.9,18.5,3.9,19.2,5.1z"/>
		</g>
		<path id="XMLID_17721_" class="st3" d="M35.1,10.1l-2.9-5c-1-1.7-2.7-2.7-4.7-2.7h-6.9c-1.9,0-3.7,1-4.6,2.6L16,5.1
			c0.7-1.2,2.5-1.2,3.2,0l6.2,10.6l-1.7,1l10.6,3.2l2.5-10.8L35.1,10.1z"/>
	</g>
	<g id="XMLID_17715_">
		<path id="XMLID_17719_" class="st82" d="M2.3,35.5l3.1,5.4c1,1.7,2.7,2.7,4.7,2.7l12,0l0-11.1L4.2,32.2C2.5,32.2,1.5,34,2.3,35.5z
			"/>
		<path id="XMLID_17718_" class="st68" d="M4.9,24.5l-2.9,5c-1,1.7-1,3.7,0,5.4l3.4,5.9c0.9,1.6,2.7,2.7,4.6,2.7l0.1,0
			c-1.4,0-2.3-1.6-1.6-2.8l6-10.7l1.7,1l-2.5-10.8L3.1,23.5L4.9,24.5z"/>
		<path id="XMLID_17717_" class="st72" d="M7.5,25.8l7-2.1l-0.8-3.4L3.1,23.5l1.7,1l-2.9,5c-1,1.7-1,3.7,0,5.4l1,1.8
			c-0.3-1.3-0.2-2.8,0.6-4C4.9,30.3,6,28.5,7.5,25.8z"/>
		<path id="XMLID_17716_" class="st3" d="M4.9,24.5l-2.9,5c-1,1.7-1,3.7,0,5.4l3.4,5.9c0.9,1.6,2.7,2.7,4.6,2.7l0.1,0
			c-1.4,0-2.3-1.6-1.6-2.8l6-10.7l1.7,1l-2.5-10.8L3.1,23.5L4.9,24.5z"/>
	</g>
	<g id="XMLID_17710_">
		<path id="XMLID_17714_" class="st82" d="M43.2,40.2l3.1-5.4c1-1.7,1-3.7,0-5.4L40,18.6l-9.6,5.6l9.1,16
			C40.2,41.7,42.3,41.7,43.2,40.2z"/>
		<path id="XMLID_17713_" class="st68" d="M32.4,43.5l5.8,0c1.9,0,3.7-1,4.7-2.7l3.4-5.9c0.9-1.6,1-3.7,0-5.3l0-0.1
			c0.7,1.2-0.2,2.8-1.6,2.8l-12.3,0.1l0-2l-8.1,7.6l8.1,7.6L32.4,43.5z"/>
		<path id="XMLID_17712_" class="st72" d="M45.8,35.5c1.3-1.7,1.5-4.1,0.5-5.9l0-0.1c0.7,1.2-0.2,2.8-1.6,2.8l-12.3,0.1l0-2
			l-8.1,7.6l1.7,1.6l4.2-3.9C32.7,35.6,33.2,35.6,45.8,35.5z"/>
		<path id="XMLID_17711_" class="st3" d="M32.4,43.5l5.8,0c1.9,0,3.7-1,4.7-2.7l3.4-5.9c0.9-1.6,1-3.7,0-5.3l0-0.1
			c0.7,1.2-0.2,2.8-1.6,2.8l-12.3,0.1l0-2l-8.1,7.6l8.1,7.6L32.4,43.5z"/>
	</g>
</g>
</svg>
