<?xml version="1.0" encoding="utf-8"?>
<!-- Generator: Adobe Illustrator 21.1.0, SVG Export Plug-In . SVG Version: 6.00 Build 0)  -->
<svg version="1.1" id="Icons" xmlns="http://www.w3.org/2000/svg" xmlns:xlink="http://www.w3.org/1999/xlink" x="0px" y="0px"
	 viewBox="0 0 48 48" style="enable-background:new 0 0 48 48;" xml:space="preserve">
<style type="text/css">
	.st0{opacity:0.15;fill:#45413C;}
	.st1{fill:#DAEDF7;stroke:#45413C;stroke-linecap:round;stroke-linejoin:round;stroke-miterlimit:10;}
	.st2{fill:#656769;}
	.st3{fill:#87898C;}
	.st4{fill:none;stroke:#45413C;stroke-linecap:round;stroke-linejoin:round;stroke-miterlimit:10;}
	.st5{fill:#DAEDF7;}
	.st6{fill:#E8F4FA;}
	.st7{fill:#FFFFFF;}
	.st8{fill:#E0E0E0;}
	.st9{fill:#00B8F0;}
	.st10{fill:#FF6242;stroke:#45413C;stroke-linecap:round;stroke-linejoin:round;stroke-miterlimit:10;}
	.st11{fill:#FFE500;stroke:#45413C;stroke-linecap:round;stroke-linejoin:round;stroke-miterlimit:10;}
	.st12{fill:#00DBA8;stroke:#45413C;stroke-linecap:round;stroke-linejoin:round;stroke-miterlimit:10;}
	.st13{fill:#BF8DF2;stroke:#45413C;stroke-linecap:round;stroke-linejoin:round;stroke-miterlimit:10;}
	.st14{fill:#00B8F0;stroke:#45413C;stroke-linecap:round;stroke-linejoin:round;stroke-miterlimit:10;}
	.st15{fill:#87898C;stroke:#45413C;stroke-linecap:round;stroke-linejoin:round;stroke-miterlimit:10;}
	.st16{fill:#FF6242;}
	.st17{fill:#E04122;}
	.st18{fill:#9CEB60;}
	.st19{fill:#6DD627;}
	.st20{fill:#FF866E;}
	.st21{fill:#F0F0F0;}
	.st22{fill:#009FD9;}
	.st23{fill:#656769;stroke:#45413C;stroke-linecap:round;stroke-linejoin:round;stroke-miterlimit:10;}
	.st24{fill:#ADC4D9;}
	.st25{fill:#8CA4B8;}
	.st26{fill:#BDBEC0;}
	.st27{fill:#C0DCEB;stroke:#45413C;stroke-linecap:round;stroke-linejoin:round;stroke-miterlimit:10;}
	.st28{fill:#4ACFFF;}
	.st29{fill:#FFFFFF;stroke:#45413C;stroke-linecap:round;stroke-linejoin:round;stroke-miterlimit:10;}
	.st30{fill:#C0DCEB;}
	.st31{fill:#FFAA54;stroke:#45413C;stroke-linecap:round;stroke-linejoin:round;stroke-miterlimit:10;}
	.st32{fill:#FF8A14;}
	.st33{fill:#FFAA54;}
	.st34{fill:#6DD627;stroke:#45413C;stroke-linecap:round;stroke-linejoin:round;stroke-miterlimit:10;}
	.st35{fill:#DEBB7E;}
	.st36{fill:#F0D5A8;}
	.st37{fill:none;stroke:#45413C;stroke-miterlimit:10;}
	.st38{fill:#FFE500;}
	.st39{fill:#FFF48C;}
	.st40{fill:#FFF48C;stroke:#45413C;stroke-linecap:round;stroke-linejoin:round;stroke-miterlimit:10;}
	.st41{fill:#FF8A14;stroke:#45413C;stroke-linecap:round;stroke-linejoin:round;stroke-miterlimit:10;}
	.st42{fill:#525252;}
	.st43{fill:#00F5BC;}
	.st44{fill:#8CFFE4;}
	.st45{fill:#00DBA8;}
	.st46{fill:#EBCB00;}
	.st47{fill:#FF866E;stroke:#45413C;stroke-linecap:round;stroke-linejoin:round;stroke-miterlimit:10;}
	.st48{fill:#FFCC99;}
	.st49{fill:#45413C;stroke:#45413C;stroke-linecap:round;stroke-linejoin:round;stroke-miterlimit:10;}
	.st50{fill:#C8FFA1;}
	.st51{fill:#BDBEC0;stroke:#45413C;stroke-linecap:round;stroke-linejoin:round;stroke-miterlimit:10;}
	.st52{fill:#80DDFF;}
	.st53{fill:#4ACFFF;stroke:#45413C;stroke-linecap:round;stroke-linejoin:round;stroke-miterlimit:10;}
	.st54{fill:#FFFCE5;}
	.st55{fill:#FFFACF;}
	.st56{fill:#627B8C;}
	.st57{fill:#BF8256;}
	.st58{fill:#DEA47A;}
	.st59{fill:#BF8256;stroke:#45413C;stroke-linecap:round;stroke-linejoin:round;stroke-miterlimit:10;}
	.st60{fill:#DEBB7E;stroke:#45413C;stroke-linecap:round;stroke-linejoin:round;stroke-miterlimit:10;}
	.st61{fill:#B89558;}
	.st62{fill:#B8ECFF;}
	.st63{fill:#F7E5C6;}
	.st64{fill:#FFF5E3;}
	.st65{fill:#915E3A;}
	.st66{fill:#45413C;stroke:#45413C;stroke-miterlimit:10;}
	.st67{fill:#FFB0CA;stroke:#45413C;stroke-linecap:round;stroke-linejoin:round;stroke-miterlimit:10;}
	.st68{fill:#FF87AF;stroke:#45413C;stroke-linecap:round;stroke-linejoin:round;stroke-miterlimit:10;}
	.st69{fill:#E5FEFF;}
	.st70{fill:#A6FBFF;}
	.st71{fill:#FFB0CA;}
	.st72{fill:#FF87AF;}
	.st73{fill:none;stroke:#45413C;stroke-linecap:round;stroke-miterlimit:10;}
	.st74{fill:#BF8DF2;}
	.st75{fill:#DABFF5;}
	.st76{fill:#4AEFF7;}
	.st77{fill:#00DFEB;}
	.st78{fill:#FFCEBF;}
	.st79{fill:#FF6196;stroke:#45413C;stroke-linecap:round;stroke-linejoin:round;stroke-miterlimit:10;}
	.st80{fill:#00DFEB;stroke:#45413C;stroke-linecap:round;stroke-linejoin:round;stroke-miterlimit:10;}
	.st81{fill:#FF6196;}
	.st82{fill:#EBCB00;stroke:#45413C;stroke-linecap:round;stroke-linejoin:round;stroke-miterlimit:10;}
	.st83{fill:#00F5BC;stroke:#45413C;stroke-linecap:round;stroke-linejoin:round;stroke-miterlimit:10;}
	.st84{fill:#4AEFF7;stroke:#45413C;stroke-linecap:round;stroke-linejoin:round;stroke-miterlimit:10;}
	.st85{fill:#46B000;}
	.st86{fill:#E0366F;}
	.st87{fill:#E0366F;stroke:#45413C;stroke-linecap:round;stroke-linejoin:round;stroke-miterlimit:10;}
	.st88{fill:none;stroke:#E04122;stroke-linecap:round;stroke-linejoin:round;stroke-miterlimit:10;}
	.st89{fill:#FFA694;}
	.st90{fill:#EDDBFF;stroke:#45413C;stroke-linecap:round;stroke-linejoin:round;stroke-miterlimit:10;}
	.st91{fill:none;stroke:#BF8DF2;stroke-linecap:round;stroke-linejoin:round;stroke-miterlimit:10;}
	.st92{fill:#EDDBFF;}
	.st93{fill:#DABFF5;stroke:#45413C;stroke-linecap:round;stroke-linejoin:round;stroke-miterlimit:10;}
	.st94{fill:#E04122;stroke:#45413C;stroke-linecap:round;stroke-linejoin:round;stroke-miterlimit:10;}
	.st95{fill:#EB6D00;}
	.st96{fill:none;stroke:#45413C;stroke-width:1.0064;stroke-linecap:round;stroke-linejoin:round;stroke-miterlimit:10;}
	.st97{fill:#915E3A;stroke:#45413C;stroke-linecap:round;stroke-linejoin:round;stroke-miterlimit:10;}
	.st98{fill:#E0E0E0;stroke:#45413C;stroke-linecap:round;stroke-linejoin:round;stroke-miterlimit:10;}
	.st99{fill:#F0F0F0;stroke:#45413C;stroke-linecap:round;stroke-linejoin:round;stroke-miterlimit:10;}
	.st100{fill:#46B000;stroke:#45413C;stroke-linecap:round;stroke-linejoin:round;stroke-miterlimit:10;}
	.st101{fill:#4F4B45;}
	.st102{fill:#FFDCD1;}
	.st103{fill:#8CA4B8;stroke:#45413C;stroke-linecap:round;stroke-linejoin:round;stroke-miterlimit:10;}
	.st104{fill:#E8F4FA;stroke:#45413C;stroke-linecap:round;stroke-linejoin:round;stroke-miterlimit:10;}
	.st105{fill:none;stroke:#48CF3E;stroke-linecap:round;stroke-linejoin:round;stroke-miterlimit:10;}
	.st106{fill:none;stroke:#FF4064;stroke-linecap:round;stroke-linejoin:round;stroke-miterlimit:10;}
	.st107{fill:none;stroke:#FFB700;stroke-linecap:round;stroke-linejoin:round;stroke-miterlimit:10;}
	.st108{fill:none;stroke:#00AED9;stroke-linecap:round;stroke-linejoin:round;stroke-miterlimit:10;}
	.st109{fill:#C0DCEB;stroke:#45413C;stroke-miterlimit:10;}
	.st110{fill:#525252;stroke:#45413C;stroke-linecap:round;stroke-linejoin:round;stroke-miterlimit:10;}
	.st111{fill:#FFF5E3;stroke:#45413C;stroke-linecap:round;stroke-linejoin:round;stroke-miterlimit:10;}
	.st112{fill:#FFFFFF;stroke:#45413C;stroke-linejoin:round;stroke-miterlimit:10;}
	.st113{fill:#F0C2A1;}
	.st114{fill:#DEA47A;stroke:#45413C;stroke-linecap:round;stroke-linejoin:round;stroke-miterlimit:10;}
	.st115{fill:#F0C2A1;stroke:#45413C;stroke-linecap:round;stroke-linejoin:round;stroke-miterlimit:10;}
	.st116{fill:#FFFEF2;}
	.st117{fill:#9CEB60;stroke:#45413C;stroke-linecap:round;stroke-linejoin:round;stroke-miterlimit:10;}
	.st118{fill:#9F5AE5;stroke:#45413C;stroke-linecap:round;stroke-linejoin:round;stroke-miterlimit:10;}
	.st119{fill:#627B8C;stroke:#45413C;stroke-linecap:round;stroke-linejoin:round;stroke-miterlimit:10;}
	.st120{fill:#FFFACF;stroke:#45413C;stroke-linecap:round;stroke-linejoin:round;stroke-miterlimit:10;}
</style>
<g>
	<ellipse id="XMLID_16021_" class="st0" cx="24" cy="45.5" rx="11.5" ry="1.5"/>
	<path id="XMLID_16020_" class="st29" d="M46.9,5.3c0.6-0.4,0.8-1.1,0.5-1.8C47,2.9,46.2,2.7,45.6,3l-2.2,1.2V1.8
		c0-0.7-0.6-1.3-1.3-1.3s-1.3,0.6-1.3,1.3v2.5L38.7,3c-0.6-0.4-1.4-0.1-1.8,0.5c-0.4,0.6-0.1,1.4,0.5,1.8l2.2,1.2l-2.2,1.2
		c-0.6,0.4-0.8,1.1-0.5,1.8c0.4,0.6,1.1,0.8,1.8,0.5l2.2-1.2v2.5c0,0.7,0.6,1.3,1.3,1.3s1.3-0.6,1.3-1.3V8.7l2.2,1.2
		c0.6,0.4,1.4,0.1,1.8-0.5c0.4-0.6,0.1-1.4-0.5-1.8l-2.2-1.2L46.9,5.3z"/>
	<path id="XMLID_16019_" class="st29" d="M8.9,7.5c0.5-0.3,0.7-1,0.4-1.5C9,5.5,8.4,5.3,7.8,5.6L6,6.6V4.6C6,4,5.6,3.5,5,3.5
		S3.9,4,3.9,4.6v2.1l-1.8-1C1.6,5.3,0.9,5.5,0.6,6C0.3,6.5,0.5,7.2,1,7.5l1.8,1L1,9.5c-0.5,0.3-0.7,1-0.4,1.5c0.3,0.5,1,0.7,1.5,0.4
		l1.8-1v2.1c0,0.6,0.5,1.1,1.1,1.1S6,13,6,12.4v-2.1l1.8,1C8.4,11.7,9,11.5,9.3,11c0.3-0.5,0.1-1.2-0.4-1.5l-1.8-1L8.9,7.5z"/>
	<path id="XMLID_16018_" class="st29" d="M45.5,40c0.5-0.3,0.7-1,0.4-1.5c-0.3-0.5-1-0.7-1.5-0.4l-1.8,1v-2.1c0-0.6-0.5-1.1-1.1-1.1
		c-0.6,0-1.1,0.5-1.1,1.1v2.1l-1.8-1c-0.5-0.3-1.2-0.1-1.5,0.4c-0.3,0.5-0.1,1.2,0.4,1.5l1.8,1l-1.8,1c-0.5,0.3-0.7,1-0.4,1.5
		c0.3,0.5,1,0.7,1.5,0.4l1.8-1v2.1c0,0.6,0.5,1.1,1.1,1.1c0.6,0,1.1-0.5,1.1-1.1v-2.1l1.8,1c0.5,0.3,1.2,0.1,1.5-0.4
		c0.3-0.5,0.1-1.2-0.4-1.5l-1.8-1L45.5,40z"/>
	<g>
		<path class="st62" d="M39.2,32.8c0.6-1,0.2-2.2-0.7-2.7l-2.9-1.7l1.6-0.4c0.8-0.2,1.3-1,1.1-1.8c-0.2-0.8-1-1.3-1.8-1.1l-4.5,1.2
			l-2.3-1.3c-0.7-0.4-0.7-1.3,0-1.7l2.3-1.3l4.5,1.2c0.8,0.2,1.6-0.3,1.8-1.1c0.2-0.8-0.3-1.6-1.1-1.8l-1.6-0.4l2.9-1.7
			c1-0.6,1.3-1.8,0.7-2.7c-0.6-1-1.8-1.3-2.7-0.7l-2.9,1.7l0.4-1.6c0.2-0.8-0.3-1.6-1.1-1.8c-0.8-0.2-1.6,0.3-1.8,1.1l-1.2,4.5
			l-2.3,1.3c-0.7,0.4-1.5-0.1-1.5-0.9v-2.7l3.3-3.3c0.6-0.6,0.6-1.5,0-2.1c-0.6-0.6-1.5-0.6-2.1,0L26,11.9V8.5c0-1.1-0.9-2-2-2
			s-2,0.9-2,2v3.4l-1.2-1.2c-0.6-0.6-1.5-0.6-2.1,0c-0.6,0.6-0.6,1.5,0,2.1l3.3,3.3v2.7c0,0.8-0.8,1.3-1.5,0.9l-2.3-1.3L17,13.8
			c-0.2-0.8-1-1.3-1.8-1.1c-0.8,0.2-1.3,1-1.1,1.8l0.4,1.6l-2.9-1.7c-1-0.6-2.2-0.2-2.7,0.7c-0.6,1-0.2,2.2,0.7,2.7l2.9,1.7
			l-1.6,0.4c-0.8,0.2-1.3,1-1.1,1.8c0.2,0.8,1,1.3,1.8,1.1l4.5-1.2l2.3,1.3c0.7,0.4,0.7,1.3,0,1.7l-2.3,1.3L11.7,25
			c-0.8-0.2-1.6,0.3-1.8,1.1c-0.2,0.8,0.3,1.6,1.1,1.8l1.6,0.4L9.6,30c-1,0.6-1.3,1.8-0.7,2.7c0.6,1,1.8,1.3,2.7,0.7l2.9-1.7
			l-0.4,1.6c-0.2,0.8,0.3,1.6,1.1,1.8c0.8,0.2,1.6-0.3,1.8-1.1l1.2-4.5l2.3-1.3c0.7-0.4,1.5,0.1,1.5,0.9v2.7l-3.3,3.3
			c-0.6,0.6-0.6,1.5,0,2.1c0.6,0.6,1.5,0.6,2.1,0l1.2-1.2v3.4c0,1.1,0.9,2,2,2s2-0.9,2-2v-3.4l1.2,1.2c0.6,0.6,1.5,0.6,2.1,0
			c0.6-0.6,0.6-1.5,0-2.1L26,31.9v-2.7c0-0.8,0.8-1.3,1.5-0.9l2.3,1.3l1.2,4.5c0.2,0.8,1,1.3,1.8,1.1c0.8-0.2,1.3-1,1.1-1.8
			l-0.4-1.6l2.9,1.7C37.4,34,38.6,33.7,39.2,32.8z"/>
		<path class="st7" d="M36.4,14.5l-2.9,1.7l0.4-1.6c0.2-0.8-0.3-1.6-1.1-1.8c-0.8-0.2-1.6,0.3-1.8,1.1l-1.2,4.5l-2.3,1.3
			c-0.7,0.4-1.5-0.1-1.5-0.9v-2.7l3.3-3.3c0.6-0.6,0.6-1.5,0-2.1c-0.6-0.6-1.5-0.6-2.1,0L26,11.9V8.5c0-1.1-0.9-2-2-2s-2,0.9-2,2
			v3.4l-1.2-1.2c-0.6-0.6-1.5-0.6-2.1,0c-0.6,0.6-0.6,1.5,0,2.1l3.3,3.3v2.7c0,0.8-0.8,1.3-1.5,0.9l-2.3-1.3L17,13.8
			c-0.2-0.8-1-1.3-1.8-1.1c-0.8,0.2-1.3,1-1.1,1.8l0.4,1.6l-2.9-1.7c-1-0.6-2.2-0.2-2.7,0.7c-0.6,1-0.2,2.2,0.7,2.7l2.9,1.7
			l-1.6,0.4c-0.8,0.2-1.3,1-1.1,1.8c0.2,0.8,1,1.3,1.8,1.1l4.5-1.2l2.3,1.3c0.7,0.4,0.7,1.3,0,1.7l-2.3,1.3L11.7,25
			c-0.8-0.2-1.6,0.3-1.8,1.1c-0.2,0.8,0.3,1.6,1.1,1.8l1.6,0.4L9.6,30c-1,0.6-1.3,1.8-0.7,2.7l30.3-17.5
			C38.6,14.3,37.4,14,36.4,14.5z"/>
		<path class="st4" d="M39.2,32.8c0.6-1,0.2-2.2-0.7-2.7l-2.9-1.7l1.6-0.4c0.8-0.2,1.3-1,1.1-1.8c-0.2-0.8-1-1.3-1.8-1.1l-4.5,1.2
			l-2.3-1.3c-0.7-0.4-0.7-1.3,0-1.7l2.3-1.3l4.5,1.2c0.8,0.2,1.6-0.3,1.8-1.1c0.2-0.8-0.3-1.6-1.1-1.8l-1.6-0.4l2.9-1.7
			c1-0.6,1.3-1.8,0.7-2.7c-0.6-1-1.8-1.3-2.7-0.7l-2.9,1.7l0.4-1.6c0.2-0.8-0.3-1.6-1.1-1.8c-0.8-0.2-1.6,0.3-1.8,1.1l-1.2,4.5
			l-2.3,1.3c-0.7,0.4-1.5-0.1-1.5-0.9v-2.7l3.3-3.3c0.6-0.6,0.6-1.5,0-2.1c-0.6-0.6-1.5-0.6-2.1,0L26,11.9V8.5c0-1.1-0.9-2-2-2
			s-2,0.9-2,2v3.4l-1.2-1.2c-0.6-0.6-1.5-0.6-2.1,0c-0.6,0.6-0.6,1.5,0,2.1l3.3,3.3v2.7c0,0.8-0.8,1.3-1.5,0.9l-2.3-1.3L17,13.8
			c-0.2-0.8-1-1.3-1.8-1.1c-0.8,0.2-1.3,1-1.1,1.8l0.4,1.6l-2.9-1.7c-1-0.6-2.2-0.2-2.7,0.7c-0.6,1-0.2,2.2,0.7,2.7l2.9,1.7
			l-1.6,0.4c-0.8,0.2-1.3,1-1.1,1.8c0.2,0.8,1,1.3,1.8,1.1l4.5-1.2l2.3,1.3c0.7,0.4,0.7,1.3,0,1.7l-2.3,1.3L11.7,25
			c-0.8-0.2-1.6,0.3-1.8,1.1c-0.2,0.8,0.3,1.6,1.1,1.8l1.6,0.4L9.6,30c-1,0.6-1.3,1.8-0.7,2.7c0.6,1,1.8,1.3,2.7,0.7l2.9-1.7
			l-0.4,1.6c-0.2,0.8,0.3,1.6,1.1,1.8c0.8,0.2,1.6-0.3,1.8-1.1l1.2-4.5l2.3-1.3c0.7-0.4,1.5,0.1,1.5,0.9v2.7l-3.3,3.3
			c-0.6,0.6-0.6,1.5,0,2.1c0.6,0.6,1.5,0.6,2.1,0l1.2-1.2v3.4c0,1.1,0.9,2,2,2s2-0.9,2-2v-3.4l1.2,1.2c0.6,0.6,1.5,0.6,2.1,0
			c0.6-0.6,0.6-1.5,0-2.1L26,31.9v-2.7c0-0.8,0.8-1.3,1.5-0.9l2.3,1.3l1.2,4.5c0.2,0.8,1,1.3,1.8,1.1c0.8-0.2,1.3-1,1.1-1.8
			l-0.4-1.6l2.9,1.7C37.4,34,38.6,33.7,39.2,32.8z"/>
	</g>
</g>
</svg>
